HIERARCHY
ROOT root
{
	OFFSET	0	13.1	24.9
	CHANNELS 6  Xposition Yposition Zposition Xrotation Yrotation Zrotation
	JOINT spine_1
	{
		OFFSET	0	9.99999	0
		CHANNELS 3  Xrotation Yrotation Zrotation
		JOINT spine_2
		{
			OFFSET	0	112	-10
			CHANNELS 3  Xrotation Yrotation Zrotation
			JOINT spine_3
			{
				OFFSET	0	206.5	19.3
				CHANNELS 3  Xrotation Yrotation Zrotation
				JOINT spine_4
				{
					OFFSET	0	110.4	14.6
					CHANNELS 3  Xrotation Yrotation Zrotation
					JOINT neck_1
					{
						OFFSET	0	71.8	-50.3
						CHANNELS 3  Xrotation Yrotation Zrotation
						JOINT neck_2
						{
							OFFSET	0	86.2	-25.8
							CHANNELS 3  Xrotation Yrotation Zrotation
							JOINT head_ee
							{
								OFFSET	0	179.8	-8.7
								CHANNELS 3  Xrotation Yrotation Zrotation
								End Site
								{
									OFFSET	1	0	0
								}
							}
						}
					}
					JOINT left_clavicle
					{
						OFFSET	-43.2	22.4	-70.8
						CHANNELS 3  Xrotation Yrotation Zrotation
						JOINT left_shoulder
						{
							OFFSET	-93.9	-5.79999	48.7
							CHANNELS 3  Xrotation Yrotation Zrotation
							JOINT left_elbow
							{
								OFFSET	-291.4	-30.8	15.2
								CHANNELS 3  Xrotation Yrotation Zrotation
								JOINT left_lowarm_twist
								{
									OFFSET	-110.7	-3.89999	13.6
									CHANNELS 3  Xrotation Yrotation Zrotation
									JOINT left_hand
									{
										OFFSET	-110.7	-3.89999	13.6
										CHANNELS 3  Xrotation Yrotation Zrotation
										JOINT left_ee
										{
											OFFSET	-80.8	-5.10001	12.1
											CHANNELS 3  Xrotation Yrotation Zrotation
											End Site
											{
												OFFSET	1	0	0
											}
										}
									}
								}
							}
						}
					}
					JOINT right_clavicle
					{
						OFFSET	43.2	22.4	-70.8
						CHANNELS 3  Xrotation Yrotation Zrotation
						JOINT right_shoulder
						{
							OFFSET	93.9	-5.79999	48.7
							CHANNELS 3  Xrotation Yrotation Zrotation
							JOINT right_elbow
							{
								OFFSET	291.4	-30.8	15.2
								CHANNELS 3  Xrotation Yrotation Zrotation
								JOINT right_lowarm_twist
								{
									OFFSET	110.7	-3.89999	13.6
									CHANNELS 3  Xrotation Yrotation Zrotation
									JOINT right_hand
									{
										OFFSET	110.7	-3.89999	13.6
										CHANNELS 3  Xrotation Yrotation Zrotation
										JOINT right_ee
										{
											OFFSET	80.8	-5.10001	12.1
											CHANNELS 3  Xrotation Yrotation Zrotation
											End Site
											{
												OFFSET	1	0	0
											}
										}
									}
								}
							}
						}
					}
				}
			}
		}
	}
	JOINT left_hip
	{
		OFFSET	-82.8	-127.5	0.300001
		CHANNELS 3  Xrotation Yrotation Zrotation
		JOINT left_knee
		{
			OFFSET	-28.2	-396.7	2.2
			CHANNELS 3  Xrotation Yrotation Zrotation
			JOINT left_ankle
			{
				OFFSET	-11.7	-411.3	35.4
				CHANNELS 3  Xrotation Yrotation Zrotation
				JOINT left_toes
				{
					OFFSET	0	-60	-88.6
					CHANNELS 3  Xrotation Yrotation Zrotation
					JOINT left_foot_ee
					{
						OFFSET	-22.5	-16.5	-42.2
						CHANNELS 3  Xrotation Yrotation Zrotation
						End Site
						{
							OFFSET	1	0	0
						}
					}
				}
			}
		}
	}
	JOINT right_hip
	{
		OFFSET	82.8	-127.5	0.300001
		CHANNELS 3  Xrotation Yrotation Zrotation
		JOINT right_knee
		{
			OFFSET	28.2	-396.7	2.2
			CHANNELS 3  Xrotation Yrotation Zrotation
			JOINT right_ankle
			{
				OFFSET	11.7	-411.3	35.4
				CHANNELS 3  Xrotation Yrotation Zrotation
				JOINT right_toes
				{
					OFFSET	0	-60	-88.6
					CHANNELS 3  Xrotation Yrotation Zrotation
					JOINT right_foot_ee
					{
						OFFSET	22.5	-16.5	-42.2
						CHANNELS 3  Xrotation Yrotation Zrotation
						End Site
						{
							OFFSET	1	0	0
						}
					}
				}
			}
		}
	}
}
MOTION
Frames: 6
Frame Time: 0.02
2800.94 716.97 -1473.77 21.0233142079 65.8923442486 -19.5255943469 -3.86518 -0.205447 1.19013 -3.86444 -0.280756 1.17465 -3.86954 -0.593781 1.0517 -3.87084 -0.420244 1.13227 6.13003 15.228 -4.47827 7.63203 29.8315 -5.01578 -0.0 0.0 -0.0 2.72617 22.7199 6.43196 31.7859 -31.3381 71.2018 3.35882 -58.9798 1.89992 65.6819 -2.30504 -7.60633 -1.89422 23.5613 -1.48424 -0.0 0.0 -0.0 11.7597 1.59533 -23.4583 -19.2976 19.8877 -61.8433 0.174436 4.93881 -0.00752275 1.10352 -0.0375725 0.135929 0.667847 -29.0308 -15.0557 0.0 0.0 0.0 -29.4965 16.7741 5.08291 -4.98307 0.172855 0.744977 34.1457 -10.5632 -4.49264 -2.12505 0.0 0.0 -0.0 0.0 -0.0 11.5797 -29.1243 -9.48499 1.41944 0.0610483 0.209256 -15.921 25.165 -2.87753 15.127 -0.0 -0.0 0.0 0.0 0.0 
2782.53583718 720.666 -1476.1059989 20.7679564158 64.7863437629 -19.0462734767 -3.98264 0.0205551 1.25385 -3.98177 -0.059266 1.25262 -3.98192 -0.404676 1.18694 -3.98382 -0.212157 1.23595 7.0381 14.1939 -5.62929 8.61835 28.9176 -6.60033 -0.0 0.0 -0.0 2.86495 23.7384 6.65265 30.0456 -31.6581 71.9711 3.32445 -58.7192 1.8705 66.36 -2.37167 -7.66225 -1.8682 23.71 -1.26425 -0.0 0.0 -0.0 11.7241 2.3574 -23.4281 -17.0459 20.0688 -63.4675 0.186928 5.29056 -0.00863646 0.375685 -0.0130852 0.0461959 0.668873 -29.2432 -15.1258 0.0 0.0 0.0 -27.8126 16.3127 4.26917 -10.9649 0.2939 1.65453 32.5694 -8.29639 -4.28562 -2.91344 0.0 0.0 -0.0 0.0 -0.0 10.6781 -28.8706 -9.34226 0.265559 0.0110259 0.0392605 -14.8402 28.6446 -2.79928 15.2747 -0.0 -0.0 0.0 0.0 0.0 
2757.88831594 717.113 -1487.3579726 21.4813516877 65.6670482725 -19.3495003601 -3.91187 -0.0697263 1.07972 -3.91123 -0.138286 1.0731 -3.91311 -0.429559 0.993055 -3.91438 -0.267343 1.04843 7.96716 13.2853 -5.27032 9.39795 26.9253 -6.32284 -0.0 0.0 -0.0 2.87723 24.1063 6.67833 28.772 -30.9279 72.7823 2.85146 -54.693 1.4749 65.0138 -2.24005 -7.55047 -1.97224 24.0792 -1.67968 -0.0 0.0 -0.0 12.0497 2.66233 -24.1544 -16.79 19.3 -64.0978 0.220942 6.2462 -0.0120551 1.28241 -0.0434162 0.158031 0.761217 -29.1618 -15.6184 0.0 0.0 0.0 -28.794 13.7029 2.99642 -11.5559 0.300689 1.74494 33.277 -8.6816 -4.36535 -2.38529 0.0 0.0 -0.0 0.0 -0.0 10.8444 -28.3465 -9.2689 -4.08932 -0.146637 -0.610322 -8.27031 23.7709 -1.45736 17.3226 -0.0 -0.0 0.0 0.0 0.0 
2738.4988837 715.166 -1492.08724857 21.5892828386 64.9014480795 -20.0357903982 -4.01794 0.174402 1.06793 -4.01731 0.106097 1.07686 -4.01429 -0.197583 1.06389 -4.01587 -0.0270922 1.08174 7.62452 13.6815 -3.83143 8.87766 26.3792 -4.49048 -0.0 0.0 -0.0 2.14692 24.5863 5.70771 27.2455 -29.7712 73.9648 2.59188 -52.078 1.2665 65.2371 -2.2617 -7.56923 -1.99074 23.4153 -2.10759 -0.0 0.0 -0.0 12.167 1.56361 -24.3383 -16.7588 21.457 -63.6986 0.266103 7.50958 -0.0174637 0.279572 -0.00976659 0.0343694 0.929519 -29.2517 -16.5913 0.0 0.0 0.0 -28.4943 15.6039 2.95973 -14.0327 0.318988 2.1245 32.6608 -9.80413 -4.32497 -1.70035 0.0 0.0 -0.0 0.0 -0.0 10.2303 -27.2445 -7.50015 -7.40681 -0.233346 -1.11199 -0.471164 25.2576 -0.0829627 17.4702 -0.0 -0.0 0.0 0.0 0.0 
2715.1429765 716.172 -1505.28876517 24.2767916334 65.3026814488 -22.2825224289 -4.03292 0.308184 1.04604 -4.03234 0.241001 1.06352 -4.02675 -0.0645038 1.08858 -4.02839 0.108216 1.0851 7.94207 13.7719 -4.3326 9.3047 26.9176 -5.17506 -0.0 0.0 -0.0 1.2614 23.9692 4.47758 24.0164 -29.8442 73.4323 2.32804 -49.0637 1.06263 65.145 -2.25276 -7.5615 -1.91397 20.6684 -2.99199 -0.0 0.0 -0.0 12.2111 0.504455 -24.3545 -15.178 22.4131 -65.4938 0.282228 7.95896 -0.0196337 -0.416548 0.0148631 -0.0511204 0.947539 -29.3394 -16.718 0.0 0.0 0.0 -27.9539 14.1826 1.07772 -19.6749 0.299366 2.98961 32.2309 -7.9438 -4.24415 -1.8949 0.0 0.0 -0.0 0.0 -0.0 9.42179 -26.7833 -7.05058 -11.0401 -0.294816 -1.66602 1.47801 26.4727 0.262521 18.0426 -0.0 -0.0 0.0 0.0 0.0 
2689.49278899 724.687 -1515.30998986 25.6849444805 64.3705344055 -24.3510210104 -4.12054 0.533669 1.29588 -4.11972 0.450135 1.3272 -4.1074 0.0610628 1.40011 -4.11002 0.281398 1.37291 6.00909 14.8297 -2.56506 7.16752 27.5165 -2.66818 -0.0 0.0 -0.0 1.09759 24.4208 4.28984 20.0807 -27.6627 72.082 2.04917 -45.4239 0.857763 64.6395 -2.20392 -7.51885 -2.3559 23.2638 -4.2807 -0.0 0.0 -0.0 12.0594 0.0396416 -23.9904 -13.6325 23.0573 -67.5694 0.43716 12.2193 -0.0467936 -1.42023 0.0522012 -0.173849 0.858305 -29.3297 -16.2129 0.0 0.0 0.0 -26.9195 12.8494 -0.394231 -24.6016 0.212709 3.74042 28.5097 -8.39511 -3.85191 -1.85614 0.0 0.0 -0.0 0.0 -0.0 6.84375 -24.2261 -6.43662 -12.0672 -0.305811 -1.82324 4.65376 25.5337 0.808884 19.9223 -0.0 -0.0 0.0 0.0 0.0 
